<svg width="809" height="460" viewBox="0 0 809 460" fill="none" xmlns="http://www.w3.org/2000/svg">
<path d="M224.492 55.2386C45.3152 -57.5343 -33.4784 254.734 -0.767366 345.818C99.4007 544.31 225.693 389.505 329.043 414.277C509.262 457.474 677.428 470.873 734.24 451.008C851.397 410.044 811.804 268.796 734.24 288.029C616.367 317.258 638.12 155.465 534 79.8594C448.053 17.4498 405.933 169.437 224.492 55.2386Z" fill="#F2F9FE" fill-opacity="0.8"/>
<path opacity="0.2" d="M518.162 23C436.676 23.0003 361 71.9348 361 109.875C361 177.891 427.52 165.68 481.284 183.862C541.628 204.268 624.202 254.152 648.569 191.362C673.022 102.778 627.351 22.9996 518.162 23Z" fill="#F2F9FE" fill-opacity="0.4"/>
<path opacity="0.2" d="M32.0215 209C88.0102 209 140.007 242.587 140.007 268.628C140.008 315.312 94.3019 306.931 57.36 319.41C15.8983 333.416 -40.8385 367.655 -57.5814 324.558C-74.3831 263.757 -43.0026 209 32.0215 209Z" fill="#F2F9FE" fill-opacity="0.4"/>
</svg>
