<svg width="773" height="440" viewBox="0 0 773 440" fill="none" xmlns="http://www.w3.org/2000/svg">
<path d="M484.952 78.489C670.792 104.846 714.286 262.721 684.989 338.919C595.273 504.972 501.238 376.343 408.672 397.067C247.258 433.204 92.0997 454.037 45.7565 427.795C-23.304 388.689 -10.4043 319.479 59.0671 302.836C256.334 255.574 252.652 45.543 484.952 78.489Z" fill="#F2F9FE"/>
<!-- <path d="M258.679 55.9137C325.456 68.9828 379.642 121.13 373.571 152.151C362.687 207.764 310.129 187.111 263.159 193.354C210.443 200.36 134.792 227.904 124.87 172.657C119.006 96.3056 169.199 38.4013 258.679 55.9137Z" fill="#BBE4FF" fill-opacity="0.4"/> -->
</svg>
